# xmcd CD database file
#
# Track frame offsets:
#	150
#	22109
#	47253
#	60548
#	92958
#	99669
#	124141
#	148859
#	179449
#	187138
#	203098
#	229952
#
# Disc length: 3324 seconds
#
# Revision: 0
# Processed by: cddbd v1.5.1PL2 Copyright (c) Steve Scherf et al.
# Submitted via: CDex 1.51
#
DISCID=b00cfa0c
DTITLE=Workshop de Lyon - Les chants d'Edith
DYEAR=2001
DGENRE=Jazz
TTITLE0=Bel amour - Hymne a l'amour
TTITLE1=L'homme à la moto
TTITLE2=Tabaïaut
TTITLE3=L'accordéoniste - Il avait de beaux yeux
TTITLE4=Esgourdez
TTITLE5=La goualante du pauvre Jean - Rien qu'un instant
TTITLE6=Protège dents
TTITLE7=La vie en rose - Le bistrot
TTITLE8=Le limonaire de Herzelle
TTITLE9=Padam-Padam
TTITLE10=Le amants d'un jour - Le papier jauni
TTITLE11=Les trois cloches
EXTD=YEAR: 2001
EXTT0=
EXTT1=
EXTT2=
EXTT3=
EXTT4=
EXTT5=
EXTT6=
EXTT7=
EXTT8=
EXTT9=
EXTT10=
EXTT11=
PLAYORDER=
